arm28_optimize_states
version=1
nRows=22
nColumns=21
inDegrees=yes

# SIMM Motion File Header:
name arm28_optimize_states
datacolumns 21
datarows 22
otherdata 1
range 0.46999000 0.56744479
endheader
time	r_shoulder_elev	r_elbow_flex	r_shoulder_elev_u	r_elbow_flex_u	TRIlong.activation	TRIlong.fiber_length	TRIlat.activation	TRIlat.fiber_length	TRImed.activation	TRImed.fiber_length	BIClong.activation	BIClong.fiber_length	BICshort.activation	BICshort.fiber_length	BRA.activation	BRA.fiber_length	DeltAnt.activation	DeltAnt.fiber_length	DeltPost.activation	DeltPost.fiber_length
      0.46999000	      7.73104700	      0.38607992	      1.57421377	   -119.79543703	      0.01008440	      0.14197218	      0.01008440	      0.07087276	      0.01008440	      0.06589767	      0.01024402	      0.14329245	      0.01025672	      0.14742561	      0.01016052	      0.08701043	      0.01008440	      0.15757029	      0.01011170	      0.11529738
      0.47464069	      7.73840760	     -0.17204312	      1.59121693	   -120.21372124	      0.01007949	      0.14179089	      0.01007949	      0.07068263	      0.01007949	      0.06570863	      0.01022983	      0.14337583	      0.01024179	      0.14751513	      0.01015119	      0.08698667	      0.01007949	      0.15756580	      0.01010521	      0.11530321
      0.47929137	      7.74585738	     -0.73202791	      1.61261104	   -120.59628718	      0.01007487	      0.14161149	      0.01007487	      0.07049444	      0.01007487	      0.06552147	      0.01021646	      0.14345650	      0.01022773	      0.14760186	      0.01014240	      0.08696097	      0.01007487	      0.15756126	      0.01009909	      0.11530910
      0.48394206	      7.75341531	     -1.29370733	      1.63752162	   -120.94219851	      0.01007052	      0.14143421	      0.01007052	      0.07030843	      0.01007052	      0.06533659	      0.01020387	      0.14353439	      0.01021448	      0.14768573	      0.01013412	      0.08693332	      0.01007052	      0.15755664	      0.01009333	      0.11531506
      0.48859275	      7.76109714	     -1.85691136	      1.66593687	   -121.25213825	      0.01006642	      0.14125928	      0.01006642	      0.07012481	      0.01006642	      0.06515400	      0.01019202	      0.14360945	      0.01020201	      0.14776671	      0.01012632	      0.08690372	      0.01006642	      0.15755195	      0.01008791	      0.11532111
      0.49324344	      7.76891758	     -2.42147120	      1.69690283	   -121.52491985	      0.01006256	      0.14108694	      0.01006256	      0.06994383	      0.01006256	      0.06497417	      0.01018085	      0.14368163	      0.01019026	      0.14784473	      0.01011897	      0.08687215	      0.01006256	      0.15754717	      0.01008280	      0.11532726
      0.49789413	      7.77688775	     -2.98721400	      1.73038264	   -121.76105687	      0.01005892	      0.14091742	      0.01005892	      0.06976573	      0.01005892	      0.06479710	      0.01017033	      0.14375089	      0.01017920	      0.14791976	      0.01011206	      0.08683863	      0.01005892	      0.15754230	      0.01007798	      0.11533352
      0.50254481	      7.78501758	     -3.55396718	      1.76531434	   -121.95901427	      0.01005550	      0.14075099	      0.01005550	      0.06959076	      0.01005550	      0.06462327	      0.01016043	      0.14381718	      0.01016878	      0.14799176	      0.01010554	      0.08680315	      0.01005550	      0.15753733	      0.01007345	      0.11533989
      0.50719550	      7.79331301	     -4.12155260	      1.80165712	   -122.11916427	      0.01005227	      0.14058788	      0.01005227	      0.06941917	      0.01005227	      0.06445272	      0.01015110	      0.14388046	      0.01015896	      0.14806069	      0.01009941	      0.08676571	      0.01005227	      0.15753226	      0.01006918	      0.11534639
      0.51184619	      7.80177860	     -4.68979148	      1.83821133	   -122.23951750	      0.01004923	      0.14042835	      0.01004923	      0.06925122	      0.01004923	      0.06428591	      0.01014232	      0.14394071	      0.01014972	      0.14812652	      0.01009363	      0.08672632	      0.01004923	      0.15752707	      0.01006516	      0.11535302
      0.51649688	      7.81041444	     -5.25849760	      1.87495259	   -122.32033162	      0.01004637	      0.14027267	      0.01004637	      0.06908717	      0.01004637	      0.06412291	      0.01013404	      0.14399789	      0.01014102	      0.14818923	      0.01008818	      0.08668499	      0.01004637	      0.15752178	      0.01006137	      0.11535978
      0.52114757	      7.81921916	     -5.82748317	      1.91052172	   -122.35907479	      0.01004368	      0.14012109	      0.01004368	      0.06892730	      0.01004368	      0.06396416	      0.01012625	      0.14405198	      0.01013282	      0.14824877	      0.01008306	      0.08664174	      0.01004368	      0.15751637	      0.01005780	      0.11536667
      0.52579825	      7.82818634	     -6.39655085	      1.94492329	   -122.35589388	      0.01004114	      0.13997387	      0.01004114	      0.06877187	      0.01004114	      0.06380979	      0.01011891	      0.14410296	      0.01012509	      0.14830515	      0.01007823	      0.08659657	      0.01004114	      0.15751088	      0.01005444	      0.11537369
      0.53044894	      7.83730806	     -6.96550066	      1.97663210	   -122.30766729	      0.01003875	      0.13983129	      0.01003875	      0.06862116	      0.01003875	      0.06366017	      0.01011199	      0.14415082	      0.01011782	      0.14835833	      0.01007368	      0.08654951	      0.01003875	      0.15750527	      0.01005128	      0.11538083
      0.53509963	      7.84657078	     -7.53412081	      2.00568537	   -122.21440638	      0.01003649	      0.13969359	      0.01003649	      0.06847544	      0.01003649	      0.06351551	      0.01010548	      0.14419554	      0.01011097	      0.14840830	      0.01006940	      0.08650057	      0.01003649	      0.15749958	      0.01004830	      0.11538809
      0.53975032	      7.85595940	     -8.10219578	      2.03040018	   -122.07239423	      0.01003437	      0.13956104	      0.01003437	      0.06833499	      0.01003437	      0.06337613	      0.01009935	      0.14423713	      0.01010452	      0.14845506	      0.01006536	      0.08644979	      0.01003437	      0.15749380	      0.01004549	      0.11539545
      0.54440101	      7.86545268	     -8.66949588	      2.05085015	   -121.88147702	      0.01003237	      0.13943390	      0.01003237	      0.06820009	      0.01003237	      0.06324226	      0.01009357	      0.14427557	      0.01009844	      0.14849860	      0.01006156	      0.08639718	      0.01003237	      0.15748796	      0.01004285	      0.11540289
      0.54905169	      7.87502784	     -9.23578647	      2.06521057	   -121.63735991	      0.01003049	      0.13931242	      0.01003049	      0.06807099	      0.01003049	      0.06311420	      0.01008813	      0.14431087	      0.01009272	      0.14853892	      0.01005799	      0.08634280	      0.01003049	      0.15748205	      0.01004036	      0.11541041
      0.55370238	      7.88465549	     -9.80081655	      2.07360776	   -121.33972501	      0.01002872	      0.13919683	      0.01002872	      0.06794795	      0.01002872	      0.06299219	      0.01008301	      0.14434305	      0.01008733	      0.14857602	      0.01005461	      0.08628666	      0.01002872	      0.15747611	      0.01003801	      0.11541798
      0.55822026	      7.89402918	    -10.34826006	      2.07423759	   -120.99484995	      0.01002710	      0.13909042	      0.01002710	      0.06783453	      0.01002710	      0.06287977	      0.01007832	      0.14437134	      0.01008239	      0.14860899	      0.01005153	      0.08623049	      0.01002710	      0.15747031	      0.01003586	      0.11542536
      0.56273814	      7.90338881	    -10.89401927	      2.06752682	   -120.59431048	      0.01002557	      0.13898998	      0.01002557	      0.06772724	      0.01002557	      0.06277343	      0.01007389	      0.14439671	      0.01007774	      0.14863894	      0.01004862	      0.08617275	      0.01002557	      0.15746453	      0.01003384	      0.11543275
      0.56744479	      7.91308588	    -11.46051120	      2.05091284	   -120.11299505	      0.01002406	      0.13889189	      0.01002406	      0.06762220	      0.01002406	      0.06266935	      0.01006955	      0.14442007	      0.01007317	      0.14866696	      0.01004576	      0.08611100	      0.01002406	      0.15745851	      0.01003185	      0.11544041
